<svg fill="none" xmlns="http://www.w3.org/2000/svg" viewBox="0 0 40 40"><g clip-path="url(#small light_different__a)"><path fill="#fff" d="M0 0h40v40H0z"/><path d="M11.799 27h-.66v-5.16h.75c.78 2.82 2.2 4.23 4.26 4.23.8 0 1.43-.19 1.89-.57.48-.4.72-1 .72-1.8 0-.3-.05-.55-.15-.75-.08-.22-.25-.44-.51-.66-.24-.24-.59-.51-1.05-.81-.44-.3-1.03-.68-1.77-1.14-.68-.42-1.27-.81-1.77-1.17-.5-.36-.92-.72-1.26-1.08-.34-.38-.6-.78-.78-1.2-.16-.42-.24-.91-.24-1.47 0-.68.11-1.3.33-1.86.24-.58.56-1.07.96-1.47.4-.4.87-.71 1.41-.93.54-.24 1.13-.36 1.77-.36.54 0 1.1.09 1.68.27.58.16 1.09.38 1.53.66l.6-.63h.57v4.32h-.78c-.44-1.22-.92-2.09-1.44-2.61-.52-.52-1.16-.78-1.92-.78-.68 0-1.23.18-1.65.54-.4.36-.6.86-.6 1.5 0 .34.05.64.15.9.12.24.3.48.54.72.24.24.54.49.9.75.38.24.83.52 1.35.84.86.54 1.59 1.02 2.19 1.44.62.42 1.12.84 1.5 1.26.38.4.66.82.84 1.26.18.44.27.94.27 1.5 0 1.42-.46 2.54-1.38 3.36-.92.8-2.13 1.2-3.63 1.2-1.56 0-2.9-.45-4.02-1.35l-.6 1.05Zm13.053-1.65c0-.56.19-1.03.57-1.41.38-.38.84-.57 1.38-.57.56 0 1.03.19 1.41.57.38.38.57.85.57 1.41 0 .54-.19 1-.57 1.38-.38.38-.85.57-1.41.57-.54 0-1-.19-1.38-.57a1.88 1.88 0 0 1-.57-1.38Z" fill="#000"/></g><defs><clipPath id="small light_different__a"><path fill="#fff" d="M0 0h40v40H0z"/></clipPath></defs></svg>