<svg fill="none" xmlns="http://www.w3.org/2000/svg" viewBox="0 0 50 30"><path fill="#fff" d="M0 0h50v30H0z"/><path d="M9.314 19.641a3.97 3.97 0 0 1-1.428-.252 2.997 2.997 0 0 1-1.14-.768l.336-.576a3.76 3.76 0 0 0 1.056.72c.36.144.74.216 1.14.216.488 0 .884-.096 1.188-.288a.961.961 0 0 0 .456-.852c0-.248-.076-.436-.228-.564-.144-.136-.356-.244-.636-.324-.272-.088-.6-.18-.984-.276a8.578 8.578 0 0 1-1.092-.372 1.742 1.742 0 0 1-.66-.504c-.144-.208-.216-.476-.216-.804 0-.408.1-.744.3-1.008.208-.272.488-.476.84-.612.36-.144.76-.216 1.2-.216.48 0 .904.076 1.272.228.368.152.668.364.9.636l-.396.552a2.016 2.016 0 0 0-.804-.564 2.605 2.605 0 0 0-1.02-.192c-.256 0-.5.036-.732.108a1.225 1.225 0 0 0-.576.336c-.144.152-.216.364-.216.636 0 .224.056.4.168.528.112.12.28.224.504.312.224.08.5.168.828.264.472.128.884.26 1.236.396.352.128.624.296.816.504.192.208.288.5.288.876 0 .584-.22 1.04-.66 1.368-.44.328-1.02.492-1.74.492Zm3.75-.12V13.27h.815v6.252h-.816Zm0-7.56v-1.2h.815v1.2h-.816Zm11.913 7.56h-.817V16.03c0-.728-.116-1.264-.348-1.608-.232-.344-.576-.516-1.032-.516-.472 0-.896.168-1.271.504a2.736 2.736 0 0 0-.78 1.296v3.816h-.816V16.03c0-.736-.113-1.272-.337-1.608-.224-.344-.567-.516-1.032-.516-.463 0-.884.164-1.26.492-.375.328-.64.76-.791 1.296v3.828h-.816V13.27h.744v1.416c.264-.488.6-.864 1.008-1.128a2.523 2.523 0 0 1 1.38-.396c.52 0 .94.148 1.26.444.32.296.515.684.588 1.164.288-.528.631-.928 1.032-1.2a2.432 2.432 0 0 1 1.38-.408c.352 0 .648.064.887.192.248.128.445.312.588.552.152.232.26.516.325.852.072.328.108.696.108 1.104v3.66Zm4.39.12a3.08 3.08 0 0 1-1.247-.252 3.22 3.22 0 0 1-.984-.708 3.426 3.426 0 0 1-.636-1.032 3.389 3.389 0 0 1-.228-1.236c0-.448.076-.864.228-1.248.152-.392.368-.736.648-1.032.28-.304.608-.54.984-.708a2.96 2.96 0 0 1 1.248-.264c.448 0 .86.088 1.236.264.376.168.704.404.984.708.28.296.496.64.648 1.032.152.384.228.8.228 1.248 0 .432-.076.844-.228 1.236a3.308 3.308 0 0 1-.648 1.032c-.272.296-.6.532-.984.708a3.025 3.025 0 0 1-1.248.252ZM27.1 16.425c0 .464.1.888.3 1.272.208.376.484.676.828.9.344.216.724.324 1.14.324.416 0 .796-.112 1.14-.336.344-.224.62-.528.828-.912.208-.392.312-.816.312-1.272 0-.464-.104-.888-.312-1.272a2.467 2.467 0 0 0-.828-.912 2.046 2.046 0 0 0-1.14-.336c-.416 0-.796.116-1.14.348-.336.232-.608.54-.816.924-.208.376-.312.8-.312 1.272Zm11.996 3.096h-.815V16.03c0-.736-.108-1.272-.325-1.608-.216-.344-.556-.516-1.02-.516-.32 0-.636.08-.947.24a2.64 2.64 0 0 0-.828.636 2.43 2.43 0 0 0-.505.912v3.828h-.816V13.27h.744v1.416c.168-.304.388-.568.66-.792a3.05 3.05 0 0 1 .925-.54c.344-.128.7-.192 1.068-.192.343 0 .636.064.875.192.24.128.432.312.576.552.145.232.248.516.313.852.064.328.096.696.096 1.104v3.66Zm1.62 0v-1.176h.709v1.176h-.708Z" fill="#000"/><path stroke="#000" stroke-width=".3" d="M3.628 7.15h40.823v15.7H3.628z"/><path d="M44.123 22.5h.956v1h-.956v-1Zm0-16h.956v1h-.956zM3 6.5h.956v1H3zm0 16h.956v1H3z" fill="#000"/></svg>