<svg fill="none" xmlns="http://www.w3.org/2000/svg" viewBox="0 0 40 40"><g clip-path="url(#small dark__a)"><path fill="#1F1F24" d="M0 0h40v40H0z"/><path fill="#1F1F24" stroke="#fff" stroke-width=".3" d="M7.934 8.385h24.132v23.229H7.934z"/><path d="M31.716 31.265h1v1h-1v-1Zm0-23.53h1v1h-1zm-24.182.25h1v1h-1zm-.25 23.28h1v1h-1zM17.287 28.3c-1.28 0-2.47-.21-3.57-.63a7.492 7.492 0 0 1-2.85-1.92l.84-1.44c.88.82 1.76 1.42 2.64 1.8.9.36 1.85.54 2.85.54 1.22 0 2.21-.24 2.97-.72.76-.5 1.14-1.21 1.14-2.13 0-.62-.19-1.09-.57-1.41-.36-.34-.89-.61-1.59-.81-.68-.22-1.5-.45-2.46-.69-1.08-.3-1.99-.61-2.73-.93-.72-.34-1.27-.76-1.65-1.26-.36-.52-.54-1.19-.54-2.01 0-1.02.25-1.86.75-2.52.52-.68 1.22-1.19 2.1-1.53.9-.36 1.9-.54 3-.54 1.2 0 2.26.19 3.18.57.92.38 1.67.91 2.25 1.59l-.99 1.38a5.041 5.041 0 0 0-2.01-1.41c-.76-.32-1.61-.48-2.55-.48-.64 0-1.25.09-1.83.27-.58.16-1.06.44-1.44.84-.36.38-.54.91-.54 1.59 0 .56.14 1 .42 1.32.28.3.7.56 1.26.78.56.2 1.25.42 2.07.66 1.18.32 2.21.65 3.09.99.88.32 1.56.74 2.04 1.26s.72 1.25.72 2.19c0 1.46-.55 2.6-1.65 3.42-1.1.82-2.55 1.23-4.35 1.23Zm9.072-.3v-2.94h1.77V28h-1.77Z" fill="#fff"/></g><defs><clipPath id="small dark__a"><path fill="#fff" d="M0 0h40v40H0z"/></clipPath></defs></svg>