<?xml version="1.0" encoding="UTF-8" standalone="no"?>
<svg fill="#fff" xmlns="http://www.w3.org/2000/svg" viewBox="0 0 50 30">
    <path fill="#fff" d="M0 0h50v30H0z"/>
    <path d="M12.548 4.826a2.036 2.036 0 0 0-.42-.36 2.66 2.66 0 0 0-.54-.288c-.2-.08-.416-.144-.648-.192a3.433 3.433 0 0 0-.72-.072c-.744 0-1.292.144-1.644.432-.344.28-.516.664-.516 1.152 0 .336.08.6.24.792.168.192.428.348.78.468.352.12.8.244 1.344.372.608.128 1.132.28 1.572.456.44.176.78.416 1.02.72.24.296.36.7.36 1.212 0 .392-.076.732-.228 1.02a2.033 2.033 0 0 1-.636.72 2.922 2.922 0 0 1-.972.432 5.423 5.423 0 0 1-1.236.132c-.44 0-.864-.044-1.272-.132a5.52 5.52 0 0 1-1.14-.408 4.726 4.726 0 0 1-1.008-.696l.42-.684c.152.16.332.312.54.456a4.676 4.676 0 0 0 1.548.636c.304.056.616.084.936.084.68 0 1.208-.124 1.584-.372.384-.248.576-.616.576-1.104 0-.352-.096-.632-.288-.84-.192-.216-.48-.392-.864-.528a12.992 12.992 0 0 0-1.416-.396 9.692 9.692 0 0 1-1.5-.456c-.408-.168-.716-.388-.924-.66-.2-.28-.3-.648-.3-1.104 0-.528.128-.972.384-1.332a2.397 2.397 0 0 1 1.08-.828c.456-.192.98-.288 1.572-.288.376 0 .724.04 1.044.12a3.675 3.675 0 0 1 1.68.864l-.408.672Zm2.141 6.924V5.498h.816v6.252h-.816Zm0-7.56v-1.2h.816v1.2h-.816Zm11.913 7.56h-.816V8.258c0-.728-.116-1.264-.348-1.608-.232-.344-.576-.516-1.032-.516-.472 0-.896.168-1.272.504a2.736 2.736 0 0 0-.78 1.296v3.816h-.816V8.258c0-.736-.112-1.272-.336-1.608-.224-.344-.568-.516-1.032-.516-.464 0-.884.164-1.26.492-.376.328-.64.76-.792 1.296v3.828h-.816V5.498h.744v1.416c.264-.488.6-.864 1.008-1.128a2.523 2.523 0 0 1 1.38-.396c.52 0 .94.148 1.26.444.32.296.516.684.588 1.164.288-.528.632-.928 1.032-1.2a2.432 2.432 0 0 1 1.38-.408c.352 0 .648.064.888.192.248.128.444.312.588.552.152.232.26.516.324.852.072.328.108.696.108 1.104v3.66Zm4.392.12a3.08 3.08 0 0 1-1.248-.252 3.22 3.22 0 0 1-.984-.708 3.426 3.426 0 0 1-.636-1.032 3.389 3.389 0 0 1-.228-1.236c0-.448.076-.864.228-1.248.152-.392.368-.736.648-1.032.28-.304.608-.54.984-.708a2.96 2.96 0 0 1 1.248-.264c.448 0 .86.088 1.236.264.376.168.704.404.984.708.28.296.496.64.648 1.032.152.384.228.8.228 1.248 0 .432-.076.844-.228 1.236a3.308 3.308 0 0 1-.648 1.032c-.272.296-.6.532-.984.708a3.025 3.025 0 0 1-1.248.252Zm-2.268-3.216c0 .464.1.888.3 1.272.208.376.484.676.828.9.344.216.724.324 1.14.324.416 0 .796-.112 1.14-.336.344-.224.62-.528.828-.912.208-.392.312-.816.312-1.272 0-.464-.104-.888-.312-1.272a2.467 2.467 0 0 0-.828-.912 2.046 2.046 0 0 0-1.14-.336c-.416 0-.796.116-1.14.348-.336.232-.608.54-.816.924-.208.376-.312.8-.312 1.272Zm11.996 3.096h-.816V8.258c0-.736-.108-1.272-.324-1.608-.216-.344-.556-.516-1.02-.516-.32 0-.636.08-.948.24a2.64 2.64 0 0 0-.828.636 2.43 2.43 0 0 0-.504.912v3.828h-.816V5.498h.744v1.416c.168-.304.388-.568.66-.792a3.05 3.05 0 0 1 .924-.54c.344-.128.7-.192 1.068-.192.344 0 .636.064.876.192s.432.312.576.552c.144.232.248.516.312.852.064.328.096.696.096 1.104v3.66Zm-24.538 9.672c.04.496.12.912.24 1.248.128.328.324.624.588.888l-.156.192h-2.628l-.144-.408.276-.072c.256-.08.432-.18.528-.3.104-.128.156-.316.156-.564l-.024-.444-.348-5.004-2.508 5.928h-.648l-2.508-5.928-.264 3.696c-.048.56-.072.952-.072 1.176 0 .328.032.608.096.84.072.224.184.448.336.672l.144.216-.18.192H6.812l-.132-.408.276-.072c.312-.096.524-.216.636-.36.12-.144.192-.396.216-.756l.324-4.752.036-.432c.016-.184.024-.348.024-.492 0-.272-.052-.468-.156-.588-.096-.12-.276-.212-.54-.276l-.276-.072.132-.408h2.184l2.472 6.036 2.544-6.036h1.728l.18.192-.144.216a2.582 2.582 0 0 0-.336.684c-.064.224-.096.5-.096.828 0 .12.02.48.06 1.08l.24 3.288Zm7.043 1.428a3.012 3.012 0 0 1-1.056.792 3.173 3.173 0 0 1-1.32.276c-.552 0-1.036-.128-1.452-.384a2.602 2.602 0 0 1-.972-1.08c-.224-.464-.336-1-.336-1.608 0-.64.128-1.2.384-1.68a2.721 2.721 0 0 1 1.08-1.128c.472-.272 1.02-.408 1.644-.408.44 0 .812.084 1.116.252.312.16.544.376.696.648.152.264.228.552.228.864 0 .336-.092.66-.276.972a2.056 2.056 0 0 1-.78.768c-.344.192-.756.288-1.236.288-.256 0-.54-.048-.852-.144-.312-.096-.468-.236-.468-.42 0-.064.016-.124.048-.18.04-.056.084-.084.132-.084.024 0 .104.028.24.084.136.048.312.072.528.072.48 0 .852-.136 1.116-.408.272-.272.408-.592.408-.96 0-.312-.1-.58-.3-.804-.2-.232-.48-.348-.84-.348-.512 0-.912.228-1.2.684-.288.448-.432 1.092-.432 1.932 0 .712.152 1.272.456 1.68.304.4.744.6 1.32.6.704 0 1.288-.228 1.752-.684a.15.15 0 0 1 .108-.048c.064 0 .132.04.204.12a.321.321 0 0 1 .108.228.15.15 0 0 1-.048.108Zm4.167 4.236c-.44 0-.816-.084-1.128-.252a1.637 1.637 0 0 1-.696-.636 1.594 1.594 0 0 1-.228-.828c0-.4.136-.744.408-1.032.272-.28.644-.42 1.116-.42.08 0 .136.012.168.036.04.032.06.064.06.096s-.056.108-.168.228c-.112.12-.212.264-.3.432-.08.168-.12.38-.12.636 0 .32.092.584.276.792.192.216.448.324.768.324.496 0 .86-.204 1.092-.612.232-.408.348-.956.348-1.644V22.43a2.04 2.04 0 0 1-.828.84c-.368.2-.772.3-1.212.3-.568 0-1.012-.172-1.332-.516-.32-.352-.48-.844-.48-1.476v-2.664c0-.096-.02-.164-.06-.204-.032-.04-.092-.06-.18-.06h-.528l-.108-.312c.208-.208.46-.38.756-.516.304-.136.58-.204.828-.204.112 0 .204.036.276.108a.374.374 0 0 1 .108.276v3.3c0 .48.096.844.288 1.092.192.248.472.372.84.372.536 0 .952-.2 1.248-.6.304-.408.456-.968.456-1.68 0-.656-.028-1.144-.084-1.464a2.004 2.004 0 0 0-.384-.876l-.144-.192.144-.18 1.464-.156v6.396c0 .984-.24 1.74-.72 2.268-.472.536-1.12.804-1.944.804Zm9.509-4.236a3.012 3.012 0 0 1-1.056.792 3.173 3.173 0 0 1-1.32.276c-.552 0-1.036-.128-1.452-.384a2.602 2.602 0 0 1-.972-1.08c-.224-.464-.336-1-.336-1.608 0-.64.128-1.2.384-1.68a2.721 2.721 0 0 1 1.08-1.128c.472-.272 1.02-.408 1.644-.408.44 0 .812.084 1.116.252.312.16.544.376.696.648.152.264.228.552.228.864 0 .336-.092.66-.276.972a2.056 2.056 0 0 1-.78.768c-.344.192-.756.288-1.236.288-.256 0-.54-.048-.852-.144-.312-.096-.468-.236-.468-.42 0-.064.016-.124.048-.18.04-.056.084-.084.132-.084.024 0 .104.028.24.084.136.048.312.072.528.072.48 0 .852-.136 1.116-.408.272-.272.408-.592.408-.96 0-.312-.1-.58-.3-.804-.2-.232-.48-.348-.84-.348-.512 0-.912.228-1.2.684-.288.448-.432 1.092-.432 1.932 0 .712.152 1.272.456 1.68.304.4.744.6 1.32.6.704 0 1.288-.228 1.752-.684a.15.15 0 0 1 .108-.048c.064 0 .132.04.204.12a.321.321 0 0 1 .108.228.15.15 0 0 1-.048.108Zm3.195-3.432c.136-.536.344-.968.624-1.296.288-.328.6-.492.936-.492a1.1 1.1 0 0 1 .828.336c.224.216.336.512.336.888 0 .304-.112.56-.336.768a1.187 1.187 0 0 1-.84.312c-.152 0-.228-.044-.228-.132 0-.024.032-.084.096-.18.072-.096.128-.196.168-.3a.82.82 0 0 0 .072-.348.454.454 0 0 0-.12-.336.34.34 0 0 0-.276-.132c-.192 0-.392.116-.6.348-.2.224-.372.592-.516 1.104-.144.504-.216 1.144-.216 1.92 0 .36.028.652.084.876.056.216.156.424.3.624l.144.192-.144.18h-2.1l-.132-.372.252-.06c.2-.048.332-.132.396-.252.072-.128.108-.344.108-.648v-3.372c0-.096-.02-.164-.06-.204-.032-.04-.092-.06-.18-.06h-.528l-.108-.312c.232-.208.496-.38.792-.516.304-.136.568-.204.792-.204.112 0 .204.036.276.108a.374.374 0 0 1 .108.276v1.284h.072Z"
     fill="#000"/>
    <path stroke="#000" stroke-width=".3" d="M3.65 12.9h42.7v15.7H3.65z"/>
    <path d="M46 28.25h1v1h-1v-1Zm0-16h1v1h-1zm-43 0h1v1H3zm0 16h1v1H3z" fill="#000"/>
</svg>