<svg viewBox="0 0 40 40" fill="none" xmlns="http://www.w3.org/2000/svg"><g clip-path="url(#small light_different__a)"><path d="M12.5264 12.04C12.5264 13 12.7664 13.8533 13.2464 14.6C13.7531 15.3467 14.3664 16 15.0864 16.56C15.8064 17.12 16.7797 17.8 18.0064 18.6C19.3397 19.4533 20.4064 20.2 21.2064 20.84C22.0064 21.48 22.6864 22.2667 23.2464 23.2C23.8064 24.1067 24.0864 25.16 24.0864 26.36C24.0864 27.7467 23.7131 28.9867 22.9664 30.08C22.2197 31.1467 21.1797 31.9867 19.8464 32.6C18.5397 33.1867 17.0731 33.48 15.4464 33.48C14.2464 33.48 12.9931 33.32 11.6864 33C10.3797 32.6533 9.49974 32.28 9.04641 31.88C8.91307 31.7733 8.80641 31.68 8.72641 31.6C8.67307 31.4933 8.64641 31.3333 8.64641 31.12L8.52641 24.76V24.72C8.52641 24.6133 8.59307 24.56 8.72641 24.56C8.85974 24.5333 8.93974 24.5733 8.96641 24.68C9.76641 26.3067 10.4597 27.6267 11.0464 28.64C11.6597 29.6533 12.4197 30.5467 13.3264 31.32C14.2597 32.0933 15.3131 32.48 16.4864 32.48C17.5531 32.48 18.4331 32.2 19.1264 31.64C19.8197 31.0533 20.1664 30.0667 20.1664 28.68C20.1664 27.5067 19.8997 26.48 19.3664 25.6C18.8597 24.72 18.2331 23.9733 17.4864 23.36C16.7397 22.7467 15.7131 22.0133 14.4064 21.16C13.1264 20.3333 12.1264 19.6267 11.4064 19.04C10.7131 18.4533 10.1131 17.7467 9.60641 16.92C9.09974 16.0933 8.84641 15.12 8.84641 14C8.84641 12.5867 9.24641 11.4 10.0464 10.44C10.8731 9.45333 11.9264 8.73333 13.2064 8.28C14.4864 7.8 15.8331 7.56 17.2464 7.56C18.1797 7.56 19.1264 7.65333 20.0864 7.84C21.0464 8 21.8197 8.2 22.4064 8.44C22.6464 8.54667 22.8064 8.66667 22.8864 8.8C22.9664 8.90667 23.0064 9.05333 23.0064 9.24V15.12C23.0064 15.2 22.9397 15.2667 22.8064 15.32C22.6731 15.3467 22.5931 15.32 22.5664 15.24L22.2464 14.48C21.5797 12.8 20.7931 11.3733 19.8864 10.2C19.0064 9.02667 17.7664 8.44 16.1664 8.44C15.0997 8.44 14.2197 8.74667 13.5264 9.36C12.8597 9.97333 12.5264 10.8667 12.5264 12.04ZM30.3523 33.44C29.6057 33.44 29.0057 33.2267 28.5523 32.8C28.1257 32.3467 27.9123 31.7467 27.9123 31C27.9123 30.3067 28.1257 29.7467 28.5523 29.32C29.0057 28.8933 29.6057 28.68 30.3523 28.68C31.099 28.68 31.6723 28.8933 32.0723 29.32C32.499 29.72 32.7123 30.28 32.7123 31C32.7123 31.7733 32.499 32.3733 32.0723 32.8C31.6723 33.2267 31.099 33.44 30.3523 33.44Z" fill="currentColor"/></g><defs><clipPath id="small light_different__a"><rect width="40" height="40" fill="white"/></clipPath></defs></svg>