<svg fill="none" xmlns="http://www.w3.org/2000/svg" viewBox="0 0 40 40"><g clip-path="url(#small light_different__a)"><path fill="#fff" d="M0 0h40v40H0z"/><path d="M12.526 12.04c0 .96.24 1.813.72 2.56.507.747 1.12 1.4 1.84 1.96s1.694 1.24 2.92 2.04c1.334.853 2.4 1.6 3.2 2.24a8.76 8.76 0 0 1 2.04 2.36c.56.907.84 1.96.84 3.16 0 1.387-.373 2.627-1.12 3.72-.746 1.067-1.786 1.907-3.12 2.52-1.306.587-2.773.88-4.4.88-1.2 0-2.453-.16-3.76-.48-1.306-.347-2.186-.72-2.64-1.12a3.97 3.97 0 0 1-.32-.28c-.053-.107-.08-.267-.08-.48l-.12-6.36v-.04c0-.107.067-.16.2-.16.134-.027.214.013.24.12.8 1.627 1.494 2.947 2.08 3.96a10.96 10.96 0 0 0 2.28 2.68c.934.773 1.987 1.16 3.16 1.16 1.067 0 1.947-.28 2.64-.84.694-.587 1.04-1.573 1.04-2.96 0-1.173-.266-2.2-.8-3.08a8.089 8.089 0 0 0-1.88-2.24c-.746-.613-1.773-1.347-3.08-2.2-1.28-.827-2.28-1.533-3-2.12a8.717 8.717 0 0 1-1.8-2.12c-.506-.827-.76-1.8-.76-2.92 0-1.413.4-2.6 1.2-3.56.827-.987 1.88-1.707 3.16-2.16a11.41 11.41 0 0 1 4.04-.72c.934 0 1.88.093 2.84.28.96.16 1.734.36 2.32.6.24.107.4.227.48.36.08.107.12.253.12.44v5.88c0 .08-.066.147-.2.2-.133.027-.213 0-.24-.08l-.32-.76c-.666-1.68-1.453-3.107-2.36-4.28-.88-1.173-2.12-1.76-3.72-1.76-1.066 0-1.946.307-2.64.92-.666.613-1 1.507-1 2.68Zm17.826 21.4c-.746 0-1.346-.213-1.8-.64-.426-.453-.64-1.053-.64-1.8 0-.693.214-1.253.64-1.68.454-.427 1.054-.64 1.8-.64.747 0 1.32.213 1.72.64.427.4.64.96.64 1.68 0 .773-.213 1.373-.64 1.8-.4.427-.973.64-1.72.64Z" fill="#000"/></g><defs><clipPath id="small light_different__a"><path fill="#fff" d="M0 0h40v40H0z"/></clipPath></defs></svg>