<?xml version="1.0" standalone="no"?>
<!DOCTYPE svg PUBLIC "-//W3C//DTD SVG 20010904//EN"
 "http://www.w3.org/TR/2001/REC-SVG-20010904/DTD/svg10.dtd">
<svg version="1.0" xmlns="http://www.w3.org/2000/svg"
 width="700.000000pt" height="700.000000pt" viewBox="0 0 700.000000 700.000000"
 preserveAspectRatio="xMidYMid meet">
<metadata>
Created by potrace 1.14, written by Peter Selinger 2001-2017
</metadata>
<g transform="translate(0.000000,700.000000) scale(0.100000,-0.100000)"
fill="#000000" stroke="none">
<path d="M2830 5670 c-247 -26 -511 -115 -685 -233 -202 -135 -348 -329 -409
-541 -94 -322 -37 -664 154 -934 141 -200 296 -321 820 -641 547 -334 742
-505 877 -766 84 -165 108 -277 107 -505 -1 -200 -16 -278 -81 -410 -85 -175
-288 -317 -522 -365 -386 -78 -794 54 -1026 333 -200 240 -325 497 -415 849
-17 67 -80 72 -80 6 0 -43 88 -961 96 -1001 10 -47 39 -71 158 -128 389 -184
848 -238 1299 -153 416 78 740 306 902 634 111 224 147 454 110 695 -29 191
-87 318 -231 506 -126 163 -275 275 -779 584 -448 275 -587 371 -706 489 -155
155 -240 291 -285 456 -15 56 -19 104 -19 245 0 204 10 253 83 400 37 77 62
111 127 176 136 138 273 192 510 201 376 14 625 -109 824 -406 111 -167 174
-311 215 -496 l23 -100 34 0 34 0 -2 50 c-1 28 -12 219 -24 425 -24 420 -24
418 -99 456 -64 32 -237 90 -349 119 -198 49 -483 73 -661 55z"/>
<path d="M5093 1720 c-64 -26 -128 -87 -155 -148 -30 -66 -29 -179 1 -249 52
-119 163 -180 310 -171 168 10 264 102 278 266 11 129 -40 233 -138 287 -47
26 -66 30 -149 32 -77 3 -105 -1 -147 -17z"/>
</g>
</svg>
